<?xml version="1.0" encoding="UTF-8"?>
<svg version="1.1" xmlns="http://www.w3.org/2000/svg" width="391" height="364">
<path d="M0 0 C129.03 0 258.06 0 391 0 C391 120.12 391 240.24 391 364 C261.97 364 132.94 364 0 364 C0 243.88 0 123.76 0 0 Z " fill="#010101" transform="translate(0,0)"/>
<path d="M0 0 C129.03 0 258.06 0 391 0 C391 120.12 391 240.24 391 364 C261.97 364 132.94 364 0 364 C0 243.88 0 123.76 0 0 Z M20 21 C20 126.6 20 232.2 20 341 C135.5 341 251 341 370 341 C370 235.4 370 129.8 370 21 C254.5 21 139 21 20 21 Z " fill="#FEFEFE" transform="translate(0,0)"/>
<path d="M0 0 C1.94726562 0.21850586 1.94726562 0.21850586 4 1 C5.57550723 3.99413133 6.79551566 6.84843611 8 10 C8.47308594 11.20769043 8.94617188 12.41538086 9.43359375 13.65966797 C11.15307681 18.0740804 12.82837067 22.50478843 14.5 26.9375 C14.95421326 28.13814087 14.95421326 28.13814087 15.41760254 29.36303711 C20.55661413 42.95881212 25.48111658 56.62383927 30.26757812 70.34741211 C30.50539001 71.02895859 30.7432019 71.71050507 30.98822021 72.41270447 C31.62507682 74.24067509 32.25941585 76.06952229 32.89355469 77.8984375 C33.86747109 80.62849795 34.90138223 83.31811707 36 86 C36.66 86 37.32 86 38 86 C38.12600586 85.13987305 38.25201172 84.27974609 38.38183594 83.39355469 C38.99199009 80.04397227 39.85921647 76.94595163 40.890625 73.703125 C41.26799805 72.50550537 41.64537109 71.30788574 42.03417969 70.07397461 C42.23281616 69.44925262 42.43145264 68.82453064 42.6361084 68.18087769 C45.50926134 59.143929 48.32047226 50.10579718 50.75 40.9375 C52.33405113 35.00891118 54.32195105 29.42498508 56.80859375 23.8125 C58.47203455 19.88568892 59.74104795 15.8584035 61.0078125 11.7890625 C62 9 62 9 65 3 C72.26 3 79.52 3 87 3 C86.12637514 7.36812428 84.95238547 11.45530574 83.55859375 15.66796875 C83.31521271 16.41210022 83.07183167 17.15623169 82.82107544 17.9229126 C82.29941289 19.51773257 81.776591 21.11217371 81.25271606 22.70626831 C76.91914495 35.89613839 72.65642304 49.09972632 68.67553711 62.40112305 C66.76201054 68.73767466 64.6084193 74.9572044 62.35864258 81.18188477 C59.79600468 88.32600014 57.45030441 95.54608961 55.0625 102.75 C54.55808734 104.26827723 54.05353041 105.78650653 53.54882812 107.3046875 C52.54504628 110.32464137 51.54203242 113.34484867 50.53955078 116.36523438 C48.03367829 123.91258975 45.5163039 131.45611756 43 139 C39.37 139.33 35.74 139.66 32 140 C31.64663574 138.9167041 31.29327148 137.8334082 30.92919922 136.71728516 C27.51217537 126.31402719 23.85546364 116.02370255 20.01965332 105.76821899 C15.2008415 92.87778232 10.49719683 79.97873687 6.30908203 66.86669922 C6.02661621 65.98900879 5.74415039 65.11131836 5.453125 64.20703125 C5.21754883 63.4591333 4.98197266 62.71123535 4.73925781 61.94067383 C3.97807693 59.7264259 3.97807693 59.7264259 2 57 C-2.73013754 66.53862379 -6.01858911 76.48634077 -9.375 86.5625 C-13.35263162 98.47757394 -17.5313918 110.26127075 -22.17770386 121.93354797 C-23.32896578 124.82669973 -24.46895305 127.72426532 -25.60995483 130.62147522 C-28.85525957 138.85525957 -28.85525957 138.85525957 -30 140 C-31.51928038 140.07179964 -33.04167482 140.08392007 -34.5625 140.0625 C-35.38878906 140.05347656 -36.21507812 140.04445312 -37.06640625 140.03515625 C-37.70449219 140.02355469 -38.34257812 140.01195312 -39 140 C-48.45544315 115.84732613 -57.41187895 91.57500222 -65.83227539 67.03930664 C-68.20937942 60.15705938 -70.77448229 53.41014362 -73.54296875 46.67578125 C-76.28536666 39.75729216 -78.6546756 32.70363497 -81.078125 25.66845703 C-82.68276337 21.02367488 -84.31180643 16.38744426 -85.9375 11.75 C-86.948125 8.8625 -87.95875 5.975 -89 3 C-80.75 3 -72.5 3 -64 3 C-63.35933594 4.94519531 -62.71867187 6.89039062 -62.05859375 8.89453125 C-56.57414233 25.6220868 -56.57414233 25.6220868 -50.625 42.1875 C-47.38683205 50.77822843 -44.38438947 59.4478549 -41.39935303 68.12905884 C-40.84319652 69.74627727 -40.28595218 71.36312202 -39.7276001 72.97958374 C-38.94137705 75.2573985 -38.15945175 77.53664061 -37.37890625 79.81640625 C-37.13865219 80.51132172 -36.89839813 81.20623718 -36.65086365 81.92221069 C-35 86.77032335 -35 86.77032335 -35 89 C-34.34 89 -33.68 89 -33 89 C-32.814375 88.06607422 -32.814375 88.06607422 -32.625 87.11328125 C-30.81426655 78.99893198 -27.98879627 71.45072899 -24.97900391 63.71533203 C-23.17091017 59.06820661 -21.41351235 54.43286931 -19.875 49.6875 C-16.03969994 37.86338715 -11.38657534 26.35158131 -6.609375 14.8828125 C-4.92580081 10.83947448 -3.31268056 6.77002996 -1.7265625 2.6875 C-1 1 -1 1 0 0 Z " fill="#FCFCFC" transform="translate(254,108)"/>
<path d="M0 0 C2.97 0 5.94 0 9 0 C14.46875 10.9375 14.46875 10.9375 15.62036133 13.25146484 C16.66644867 15.33549444 17.72597804 17.41278353 18.79174805 19.48681641 C23.95957899 29.59206494 28.47047875 39.89230199 32.8125 50.375 C33.51175774 52.05071127 34.21163589 53.72616376 34.91210938 55.40136719 C36.30139099 58.72524241 37.68825143 62.05010791 39.07275391 65.37597656 C41.69630509 71.67528887 44.34328018 77.9646013 47 84.25 C47.66068481 85.81451904 47.66068481 85.81451904 48.3347168 87.41064453 C50.86695546 93.38717127 53.46330677 99.33011855 56.125 105.25 C59.21029263 112.11509615 62.136382 119.03955168 65 126 C65.39848145 126.96325195 65.79696289 127.92650391 66.20751953 128.91894531 C66.57216309 129.81194336 66.93680664 130.70494141 67.3125 131.625 C67.63863281 132.42164063 67.96476562 133.21828125 68.30078125 134.0390625 C69 136 69 136 69 138 C61.41 138.33 53.82 138.66 46 139 C44.3471226 134.79431195 42.70248536 130.58571275 41.0625 126.375 C40.59392578 125.18519531 40.12535156 123.99539062 39.64257812 122.76953125 C39.19462891 121.61582031 38.74667969 120.46210938 38.28515625 119.2734375 C37.87144775 118.21560059 37.45773926 117.15776367 37.03149414 116.06787109 C36 113 36 113 35 107 C6.29 107.495 6.29 107.495 -23 108 C-26.20720605 117.12255724 -26.20720605 117.12255724 -29.40185547 126.24951172 C-29.80291504 127.38146973 -30.20397461 128.51342773 -30.6171875 129.6796875 C-31.22989502 131.42354736 -31.22989502 131.42354736 -31.85498047 133.20263672 C-33 136 -33 136 -35 138 C-37.33837891 138.22705078 -37.33837891 138.22705078 -40.2265625 138.1953125 C-41.7734375 138.18564453 -41.7734375 138.18564453 -43.3515625 138.17578125 C-44.97191406 138.15064453 -44.97191406 138.15064453 -46.625 138.125 C-47.71296875 138.11597656 -48.8009375 138.10695312 -49.921875 138.09765625 C-52.61480152 138.07403409 -55.30729255 138.04109556 -58 138 C-50.54391104 115.52572237 -50.54391104 115.52572237 -46.15234375 107.26171875 C-44.5163222 104.05067985 -43.26398832 100.71603392 -41.9609375 97.359375 C-41.0872522 95.21422897 -40.12479796 93.18160885 -39.0625 91.125 C-36.81813302 86.77764348 -35.0091794 82.27108292 -33.15625 77.74609375 C-32 75 -32 75 -30.4375 71.9375 C-28.66541401 68.31628081 -27.38258817 64.58934537 -26.03515625 60.79296875 C-24.83506335 57.55498226 -23.4334729 54.44621906 -21.99609375 51.30859375 C-20.89691805 48.76109242 -19.97719068 46.18167451 -19.0625 43.5625 C-17.43935767 38.99224042 -15.44886663 34.77139515 -13.22265625 30.46875 C-11.60240649 27.19719138 -10.28776479 23.83777898 -8.96484375 20.4375 C-7.43370401 16.5693575 -5.71121175 12.79099219 -4 9 C-3.24904565 7.31292448 -2.49902105 5.62543475 -1.75 3.9375 C-1.1725 2.638125 -0.595 1.33875 0 0 Z " fill="#FCFDFD" transform="translate(109,110)"/>
<path d="M0 0 C3.73777983 2.574915 6.71309099 4.83933858 8.8125 8.9375 C9.80923255 14.5705491 9.61830577 19.26619915 7.125 24.4375 C0.47320599 31.62862866 0.47320599 31.62862866 -4.54296875 32.2109375 C-10.31114622 32.41779628 -14.34069075 32.27017705 -18.81640625 28.40625 C-23.27537689 23.62968886 -23.7360925 18.85359432 -23.53125 12.5546875 C-22.84204221 7.30731 -19.89736975 4.32541421 -16 1.0625 C-10.82970837 -2.37696439 -5.70168816 -1.90056272 0 0 Z " fill="#FDFDFD" transform="translate(330.1875,278.0625)"/>
<path d="M0 0 C4.93345082 1.91447345 6.01809516 5.21717951 8.203125 9.8125 C10.63463798 15.3412302 12.78826828 20.98196182 14.9375 26.625 C15.35153076 27.70475098 15.76556152 28.78450195 16.19213867 29.89697266 C16.57088135 30.9132373 16.94962402 31.92950195 17.33984375 32.9765625 C17.85599243 34.35448975 17.85599243 34.35448975 18.38256836 35.76025391 C19 38 19 38 18 40 C7.11 39.67 -3.78 39.34 -15 39 C-14.21965832 33.53760823 -13.22058416 29.49193336 -11.09375 24.5703125 C-10.80898804 23.89451141 -10.52422607 23.21871033 -10.23083496 22.52243042 C-9.63284371 21.10739337 -9.03094075 19.69400352 -8.42529297 18.28222656 C-7.4950822 16.11353464 -6.57664565 13.94014658 -5.66015625 11.765625 C-5.07619042 10.38773686 -4.49157826 9.01012243 -3.90625 7.6328125 C-3.63018921 6.98184601 -3.35412842 6.33087952 -3.06970215 5.66018677 C-1.11763914 1.11763914 -1.11763914 1.11763914 0 0 Z " fill="#020202" transform="translate(113,155)"/>
<path d="M0 0 C4.74406498 2.48774139 9.05864468 5.90394229 11 11 C11.59163186 16.24016789 11.29582122 19.98671171 8.390625 24.45703125 C4.87811769 28.3543357 0.17121876 30.17567655 -5 30.5625 C-11.15155269 30.21132868 -15.49480974 26.65570929 -19.5 22.25 C-21.46653616 17.98917165 -21.79513368 14.61343188 -21 10 C-18.80848384 5.16040182 -15.9638651 2.78589455 -11.20703125 0.703125 C-7.33590709 -0.53015349 -3.98320959 -0.92293881 0 0 Z " fill="#FBFBFC" transform="translate(328,50)"/>
</svg>
