<?xml version="1.0" encoding="UTF-8" standalone="no" ?>
<!DOCTYPE svg PUBLIC "-//W3C//DTD SVG 1.1//EN" "http://www.w3.org/Graphics/SVG/1.1/DTD/svg11.dtd">
<svg xmlns="http://www.w3.org/2000/svg" xmlns:xlink="http://www.w3.org/1999/xlink" version="1.1" width="1080" height="1080" viewBox="0 0 1080 1080" xml:space="preserve">
<desc>Created with Fabric.js 5.2.4</desc>
<defs>
</defs>
<g transform="matrix(1 0 0 1 540 540)" id="4ac2aec6-176d-4584-8b68-832683ab53bb"  >
<rect style="stroke: none; stroke-width: 1; stroke-dasharray: none; stroke-linecap: butt; stroke-dashoffset: 0; stroke-linejoin: miter; stroke-miterlimit: 4; fill: rgb(255,255,255); fill-rule: nonzero; opacity: 1; visibility: hidden;" vector-effect="non-scaling-stroke"  x="-540" y="-540" rx="0" ry="0" width="1080" height="1080" />
</g>
<g transform="matrix(1 0 0 1 540 540)" id="2323dfa9-57fc-497d-8d7b-1301d0e9e305"  >
</g>
<g transform="matrix(2.07 0 0 2.07 540 540)" id="f740098b-ec20-4946-b3d3-a4756e082d16"  >
<path style="stroke: rgb(0,0,0); stroke-width: 0; stroke-dasharray: none; stroke-linecap: butt; stroke-dashoffset: 0; stroke-linejoin: miter; stroke-miterlimit: 4; fill: rgb(255,255,255); fill-rule: nonzero; opacity: 1;" vector-effect="non-scaling-stroke"  transform=" translate(-256, -256)" d="M 495.85495 367.604248 C 466.8746033 294.4267883 442.81835939999996 219.3725585 415.12966919999997 145.71073909999998 C 402.8999024 114.34889219999998 390.9322815 82.72467799999998 374.26248169999997 53.38120269999999 C 367.64294429999995 42.84636689999999 361.3059998 31.262308099999988 350.44842529999994 24.521816299999987 C 347.70898439999996 22.781078399999988 344.61993409999997 22.042016999999987 341.56884769999994 22.100154899999986 C 336.48361209999996 22.196725899999986 331.42767339999995 24.471313499999987 327.54269409999995 27.750778199999985 C 312.97183229999996 39.294433599999984 304.3341674999999 56.08543009999998 294.6472777999999 71.54438779999998 C 277.5333251999999 100.24217219999998 259.49133299999994 130.29219049999998 230.87411499999993 148.93971249999998 C 217.43353269999994 158.4248199 199.83522029999995 159.45410149999998 186.87898259999992 169.6255646 C 169.1597137999999 182.9855805 157.1115264999999 201.93586729999998 142.58082589999992 218.36349489999998 C 139.27131659999992 222.3189545 134.14517219999993 223.89315799999997 129.66497809999993 226.03225709999998 C 86.31529999999992 243.71110529999999 42.945663499999924 261.3495483 -8.526512829121202e-14 279.9165344 C 36.366531399999914 308.0491638 75.11481479999992 333.0740661 112.20809169999991 360.2380371 C 122.37955469999991 358.21990969999996 132.5911711999999 354.0424805 143.08535759999992 355.8989868 C 159.71499629999994 361.1059265 169.46249379999992 377.0492248 177.09107959999992 391.6200867 C 192.5902097999999 423.3854676 203.7909391999999 456.9268189 216.3436582999999 489.9030152 C 237.3322751999999 488.40960700000005 256.2219541999999 477.5924683 272.4478147999999 464.8781434 C 303.6884763999999 439.5709229 327.48208599999987 406.8770448 353.67764269999986 376.68585210000003 C 366.2303770999999 363.48718270000006 379.02523789999987 347.76611330000003 397.87454209999987 344.0929871 C 416.9258420999999 339.4915772 437.3291013999999 346.3128663 451.45602399999984 359.4307251 C 471.2739867999998 377.1499939 488.83187869999983 397.6340637 511.99999999999983 411.1958618 C 508.89199829999984 395.8581238 501.4250182999998 382.09457399999997 495.8549499999998 367.604248 z M 171.84375 316.0408936 C 153.5596008 326.8583069 134.1451721 335.7580872 115.134285 345.2030335 C 85.30623630000001 325.2234803 56.245330800000005 304.0533143 26.942009 283.34725960000003 C 66.4569435 266.03176890000003 106.5774155 249.94706730000001 146.61708829999998 233.80200200000002 C 165.58757779999996 248.61528020000003 185.16361229999998 262.6816102 204.13385769999996 277.49462900000003 C 195.21386719999995 291.74273680000005 184.47727969999997 304.9815674 171.84374999999997 316.0408936 z M 212.5091553 266.3948975 C 193.6598664 252.2275696 174.5684204 238.4438172 156.0014649 223.9133606 C 167.9084931 207.6875 180.9455414 192.0065765 196.565857 179.2116852 C 206.898697 172.5921478 219.5322114 170.7555847 230.2688142 164.7819977 C 255.7376405 152.0676575 273.1137086 128.73818970000002 289.70269790000003 106.4579239 C 268.43176270000004 161.673996 245.72778320000003 217.1122589 212.50915530000003 266.39489749999996 z" stroke-linecap="round" />
</g>
</svg>